<svg xmlns="http://www.w3.org/2000/svg" width="12.229" height="12.229" viewBox="0 0 12.229 12.229">
  <defs>
    <style>
      .cls-1 {
        fill: #fff;
      }
    </style>
  </defs>
  <g id="ic_local_phone_48px" transform="translate(-6 -6)">
    <path id="Path_41" data-name="Path 41" class="cls-1" d="M8.463,11.3a10.231,10.231,0,0,0,4.477,4.474l1.495-1.5a.682.682,0,0,1,.69-.166,7.734,7.734,0,0,0,2.425.387.677.677,0,0,1,.679.679v2.378a.677.677,0,0,1-.679.679A11.548,11.548,0,0,1,6,6.679.679.679,0,0,1,6.679,6H9.057a.677.677,0,0,1,.679.679A7.734,7.734,0,0,0,10.124,9.1a.682.682,0,0,1-.166.69Z"/>
  </g>
</svg>
