<svg xmlns="http://www.w3.org/2000/svg" viewBox="0 0 120.516 35.905">
  <defs>
    <style>
      .cls-1 {
        fill: #fff;
      }
    </style>
  </defs>
  <g id="logo-footer" transform="translate(-0.096 -0.017)">
    <path id="Path_43" data-name="Path 43" class="cls-1" d="M223.776,40.255H216.1V33.6h-3.4V50.313h3.4V43.657h7.673v6.655h3.4V33.6h-3.4Z" transform="translate(-159.808 -25.244)"/>
    <path id="Path_44" data-name="Path 44" class="cls-1" d="M363.774,43.757,355.48,33.6H352.5V50.313h3.4V39.783l8.269,10.529h2.98V33.6h-3.377Z" transform="translate(-264.891 -25.244)"/>
    <g id="Group_32" data-name="Group 32" transform="translate(36.478 7.959)">
      <path id="Path_45" data-name="Path 45" class="cls-1" d="M282.424,43.906a5.422,5.422,0,0,1-.447-1.763v-.4a2.414,2.414,0,0,1,.025-.422v-.075a2.14,2.14,0,0,1,.075-.422V40.8a4.987,4.987,0,0,1,3.8-3.849c.025,0,.075-.025.1-.025a1.929,1.929,0,0,1,.4-.05h.1c.124,0,.273-.025.4-.025a5.521,5.521,0,0,1,2.161.447Zm9.163-.4a4.713,4.713,0,0,1-1.192,1.862,1.078,1.078,0,0,1-.174.149l-.074.074a5,5,0,0,1-5.314.7l6.581-6.606h0l1.515-1.515.969-.968s.124-.075-.894-1.093a11.9,11.9,0,0,0-1.664-1.44,8.3,8.3,0,0,0-12.218,4.222c-.025.05-.025.1-.05.149a3.83,3.83,0,0,0-.174.571c-.05.149-.075.323-.124.472-.025.075-.025.174-.05.248-.025.2-.074.422-.1.621v.124a6.5,6.5,0,0,0-.025.7V41.8h0a8.325,8.325,0,0,0,16.39,2.111l.1-.4h-3.5Z" transform="translate(-245.82 -33.054)"/>
      <path id="Path_46" data-name="Path 46" class="cls-1" d="M422.849,43.906a5.427,5.427,0,0,1-.447-1.763v-.4a2.409,2.409,0,0,1,.025-.422v-.075a2.145,2.145,0,0,1,.074-.422V40.8a4.988,4.988,0,0,1,3.8-3.849c.025,0,.074-.025.1-.025a1.931,1.931,0,0,1,.4-.05h.1c.124,0,.273-.025.4-.025a5.52,5.52,0,0,1,2.16.447Zm9.139-.4a4.713,4.713,0,0,1-1.192,1.862,1.08,1.08,0,0,1-.174.149l-.074.074a5,5,0,0,1-5.314.7l6.581-6.606h0l1.515-1.515.968-.968s.124-.075-.894-1.093a11.9,11.9,0,0,0-1.664-1.44,8.3,8.3,0,0,0-12.218,4.222c-.025.05-.025.1-.05.149a3.837,3.837,0,0,0-.174.571c-.05.149-.075.323-.124.472-.025.075-.025.174-.05.248-.025.2-.075.422-.1.621v.124a6.5,6.5,0,0,0-.025.7V41.8h0a8.325,8.325,0,0,0,16.39,2.111l.1-.4h-3.5Z" transform="translate(-351.355 -33.054)"/>
      <path id="Path_47" data-name="Path 47" class="cls-1" d="M158.917,44.218a5.083,5.083,0,0,1-3.7,1.589,5.153,5.153,0,1,1,3.576-8.841l2.483-2.483A8.5,8.5,0,0,0,155.217,32a8.667,8.667,0,1,0,6.159,14.726Z" transform="translate(-146.6 -32)"/>
    </g>
    <path id="Path_48" data-name="Path 48" class="cls-1" d="M295.778,14.018H292.5L297.243,9.3h.075l4.768,4.718h-3.253l-1.54-1.564Z" transform="translate(-219.791 -6.978)"/>
    <g id="Group_33" data-name="Group 33" transform="translate(0.096 0.017)">
      <path id="Path_49" data-name="Path 49" class="cls-1" d="M260.775,126.06h1.54l-2.309-3.054,2.185-2.881H260.7l-.795,1.117c-.348.5-.6.869-.621.869h0s-.273-.348-.646-.869L257.8,120.1h-1.515l2.21,2.881-2.359,3.079h1.49l.869-1.192c.447-.571.7-.919.7-.919h0s.248.348.67.919Zm-6.581-5.935h-1.217v3.328c0,1.118-.472,1.614-1.391,1.614-.944,0-1.391-.521-1.391-1.614v-3.328H248.93v3.352a2.645,2.645,0,1,0,5.289,0v-3.352Zm-9.188,3.675h-1.937l.521-1.316c.223-.521.422-1.043.447-1.043h.025s.224.546.447,1.043Zm.422,1.068.472,1.192h1.316l-2.483-5.935h-1.391l-2.483,5.935h1.316l.472-1.192Zm-7.673,1.192,2.309-5.935h-1.341l-1.068,2.955c-.422,1.117-.621,1.689-.621,1.713h-.025c0-.025-.223-.6-.646-1.738l-1.068-2.93h-1.391l2.31,5.935Zm-6.9-2.26h-1.937l.522-1.316c.223-.521.422-1.043.447-1.043h.025s.224.546.447,1.043Zm.447,1.068.472,1.192h1.316l-2.483-5.935h-1.391l-2.483,5.935h1.316l.472-1.192Zm-10.057-1.838v-1.838h1.043c.72,0,1.093.323,1.093.944s-.422.894-1.093.894Zm2.136,3.03h1.465l-1.465-2.309a1.653,1.653,0,0,0,1.267-1.664c0-1.217-.894-1.962-2.434-1.962H220v5.935h1.242v-2.086h.894Zm-5.662-4.842v-1.093H212.5v1.093h1.987v4.842h1.242v-4.842Z" transform="translate(-159.754 -90.28)"/>
      <path id="Path_50" data-name="Path 50" class="cls-1" d="M12.936,94.6a16.285,16.285,0,0,0,10.7-4.3l6.606,6.357s-6.879,8.021-18.4,4.023A17.229,17.229,0,0,1,1.786,92.294,15.074,15.074,0,0,1,.1,87.7a16.042,16.042,0,0,0,12.839,6.9" transform="translate(-0.096 -65.925)"/>
      <path id="Path_51" data-name="Path 51" class="cls-1" d="M28.791,11.51A9.265,9.265,0,0,0,15.282,24.175c-11.2-2.508-12.541-18.451.124-22.9C27.723-3.067,34.975,5.2,34.975,5.2Z" transform="translate(-4.826 -0.017)"/>
    </g>
  </g>
</svg>
