<svg xmlns="http://www.w3.org/2000/svg" viewBox="0 0 125.098 42.224">
  <defs>
    <style>
      .cls-1 {
        fill: #fff;
      }
    </style>
  </defs>
  <g id="logo" transform="translate(-0.002 0.1)">
    <g id="Group_24" data-name="Group 24" transform="translate(0.002 -0.1)">
      <path id="Path_21" data-name="Path 21" class="cls-1" d="M41.848,51.613a3.662,3.662,0,0,1,3.162,1.953,6.6,6.6,0,0,1,.744,3.162v18.63c0,.248-.062.31-.31.31h-3.72c-.465,0-.465,0-.5.5-.031.31.093.341.372.341H54.743c.558,0,.558,0,.558-.558,0-.217-.062-.279-.279-.279H51.117c-.279,0-.341-.062-.341-.341V60.478c0-.93,0-1.829-.031-2.759a7.7,7.7,0,0,0-.961-3.5,6.858,6.858,0,0,0-3.937-2.945,12.6,12.6,0,0,0-5.27-.5,11.329,11.329,0,0,0-5.89,2.2A16.8,16.8,0,0,0,30.565,57.6a67.84,67.84,0,0,0-3.348,6.293,45.494,45.494,0,0,1-3.6,6.324,14.438,14.438,0,0,1-3.317,3.41A11.572,11.572,0,0,1,12.587,75.6a6.22,6.22,0,0,1-5.27-3.6,9.811,9.811,0,0,1-.868-2.418,23.529,23.529,0,0,1-.558-4.65A33.124,33.124,0,0,1,6.325,57.5,11.41,11.41,0,0,1,8,53.162a4.907,4.907,0,0,1,3.007-2.2,10.259,10.259,0,0,1,3.5-.279,5.9,5.9,0,0,1,2.666.961,2.149,2.149,0,0,1,.9,1.8,5.738,5.738,0,0,1-.4,1.891,5.752,5.752,0,0,0-.4,1.922,1.526,1.526,0,0,0,.992,1.612,4.268,4.268,0,0,0,2.635.341,2.5,2.5,0,0,0,2.17-2.108,4.845,4.845,0,0,0-.93-3.875,7.456,7.456,0,0,0-2.635-2.17,13.165,13.165,0,0,0-8.276-1.085A13.367,13.367,0,0,0,.653,59.176a14,14,0,0,0-.465,6.6,11.626,11.626,0,0,0,3.6,7.129A12.686,12.686,0,0,0,9.3,75.915a15.024,15.024,0,0,0,7.036.31,12.473,12.473,0,0,0,6.819-4.216A31.355,31.355,0,0,0,27,66.212c1.209-2.2,2.294-4.464,3.534-6.633a23.43,23.43,0,0,1,3.658-5.022A9.71,9.71,0,0,1,41.848,51.613Z" transform="translate(-0.002 -34.285)"/>
      <path id="Path_22" data-name="Path 22" class="cls-1" d="M72.641.768h3.813c.31,0,.372.093.372.372v24.4h.062L78.1,23.117a36.755,36.755,0,0,1,3.689-6.2.559.559,0,0,0,.093-.372V.21c0-.248-.062-.31-.31-.31-2.914.031-5.828.031-8.741.031-.527,0-.527,0-.527.527C72.3.737,72.393.768,72.641.768Z" transform="translate(-49.889 0.1)"/>
      <path id="Path_23" data-name="Path 23" class="cls-1" d="M140.155,17.088a4.2,4.2,0,0,0,.062.62,1.832,1.832,0,0,0,.124-.248,13.107,13.107,0,0,1,2.046-4.371,7.455,7.455,0,0,1,4.588-2.945.184.184,0,0,1,.217-.031.17.17,0,0,1-.155.093,4.078,4.078,0,0,0-.9.589,8.292,8.292,0,0,0-2.635,4.061,6.608,6.608,0,0,0-.186,3.472c.031.186.124.248.31.279a10.7,10.7,0,0,0,1.984-.062,5.256,5.256,0,0,0,4.4-3.813,9.866,9.866,0,0,0,.248-2.511,5.816,5.816,0,0,1,2.635-4.96c.217-.155.465-.31.713-.5a2.133,2.133,0,0,0-.4-.062,1.509,1.509,0,0,0-.372-.031,16.529,16.529,0,0,0-6.045.4,8.428,8.428,0,0,0-5.735,4.65,10.416,10.416,0,0,0-.868,4.743A1.4,1.4,0,0,0,140.155,17.088Z" transform="translate(-96.697 -4.502)"/>
    </g>
    <g id="Group_25" data-name="Group 25" transform="translate(32.165 21.282)">
      <path id="Path_24" data-name="Path 24" class="cls-1" d="M410.747,69.931h-4.061c-.279,0-.372.093-.465.341-.651,1.86-1.3,3.689-1.953,5.518-.4,1.147-.806,2.263-1.209,3.41a.536.536,0,0,1-.186-.372c-1.023-2.883-2.046-5.735-3.038-8.617-.093-.217-.186-.31-.4-.31H395.31c-.279,0-.31.093-.31.341V83.88c0,.248.062.31.31.31.806,0,1.643-.031,2.449,0,.31,0,.4-.062.4-.372V73.341a.634.634,0,0,1,.155.279c1.116,3.41,2.263,6.819,3.379,10.26.093.248.186.341.465.341a15.639,15.639,0,0,1,1.7,0,.411.411,0,0,0,.465-.31c1.054-3.131,2.139-6.262,3.224-9.423.124-.372.248-.744.372-1.085.031,0,.031,0,.062.031V83.88c0,.279.062.372.372.372.806-.031,1.643-.031,2.449,0,.279,0,.372-.062.372-.341V70.3C411.119,69.993,410.995,69.931,410.747,69.931Z" transform="translate(-336.723 -69.583)"/>
      <path id="Path_25" data-name="Path 25" class="cls-1" d="M345.978,69.931c-1.364.031-2.7.031-4.061,0-.279,0-.372.093-.465.341-.992,2.852-2.015,5.7-3.038,8.555a.612.612,0,0,1-.186.372l-.093-.279c-1.023-2.883-2.046-5.766-3.038-8.648a.471.471,0,0,0-.5-.372c-1.333.031-2.666.031-3.968,0-.31,0-.434.062-.434.4.031,1.395,0,2.79,0,4.154v9.3c0,.341.093.434.434.4.775-.031,1.55-.031,2.356,0,.31,0,.4-.093.4-.4V73.341c.031,0,.062-.031.093-.031.031.093.062.217.093.31,1.116,3.41,2.232,6.788,3.348,10.2a.346.346,0,0,0,.434.31,15.076,15.076,0,0,1,1.674,0,.483.483,0,0,0,.558-.372c1.147-3.379,2.294-6.757,3.441-10.105.031-.124.031-.279.186-.372V83.756c0,.341.093.4.4.4.806-.031,1.581-.031,2.387,0,.31,0,.372-.093.372-.372V70.21C346.319,70.024,346.288,69.931,345.978,69.931Z" transform="translate(-292.01 -69.583)"/>
      <path id="Path_26" data-name="Path 26" class="cls-1" d="M472.413,75.178a7.006,7.006,0,0,0-3.131-5.084,8.347,8.347,0,0,0-5.3-1.178A7.164,7.164,0,0,0,457.1,76.48a8.107,8.107,0,0,0,.093,1.147,6.8,6.8,0,0,0,3.317,5.146,8.52,8.52,0,0,0,7.5.527,6.533,6.533,0,0,0,4.185-4.526A8.8,8.8,0,0,0,472.413,75.178Zm-3.224,1.829a4.1,4.1,0,0,1-3.162,3.813,4.373,4.373,0,0,1-5.642-4.464,4.279,4.279,0,0,1,3.193-4.433C466.864,71.148,469.592,73.411,469.189,77.007Z" transform="translate(-379.574 -68.878)"/>
      <path id="Path_28" data-name="Path 28" class="cls-1" d="M310.662,77.229V70.441c0-.248-.031-.341-.31-.341-.837.031-1.674.031-2.542,0-.248,0-.31.093-.31.31V84.08c0,.248.093.31.31.31.837,0,1.674-.031,2.48,0,.279,0,.341-.093.341-.341C310.631,81.755,310.662,79.492,310.662,77.229Z" transform="translate(-276.346 -69.721)"/>
    </g>
    <path id="Path_30" data-name="Path 30" class="cls-1" d="M161.093,14.269c-.031-.031-.062,0-.093,0l.062.062C161.093,14.331,161.124,14.3,161.093,14.269Z" transform="translate(-111.092 -9.906)"/>
    <path id="Path_31" data-name="Path 31" class="cls-1" d="M161.248,14.155a.243.243,0,0,0-.248.031c.031,0,.062-.031.093,0s-.031.031-.031.062C161.124,14.248,161.217,14.248,161.248,14.155Z" transform="translate(-111.092 -9.822)"/>
  </g>
</svg>
