<svg id="Group_2076" data-name="Group 2076" xmlns="http://www.w3.org/2000/svg" width="27.015" height="27.016" viewBox="0 0 27.015 27.016">
  <defs>
    <style>
      .cls-1 {
        fill: #fff;
      }
    </style>
  </defs>
  <path id="Path_508" data-name="Path 508" class="cls-1" d="M13.5,0,0,13.514l13.514,13.5L27.015,13.5ZM10.491,16.523a1.47,1.47,0,0,1-.784.536,2.145,2.145,0,0,1-.634.084,1.8,1.8,0,0,1-1.109-.333,1.869,1.869,0,0,1-.581-.74A2.991,2.991,0,0,1,7.134,15l1.086-.077a1.639,1.639,0,0,0,.348.954.583.583,0,0,0,.471.211.708.708,0,0,0,.6-.367.926.926,0,0,0,.115-.5,1.387,1.387,0,0,0-.427-.936l-1.012-.961a4.337,4.337,0,0,1-.8-.983,2.27,2.27,0,0,1-.252-1.063,1.844,1.844,0,0,1,.7-1.56A1.72,1.72,0,0,1,9.018,9.4a1.931,1.931,0,0,1,1.043.273,1.556,1.556,0,0,1,.544.592,2.154,2.154,0,0,1,.249.875l-1.091.2a1.318,1.318,0,0,0-.264-.724.557.557,0,0,0-.452-.187.521.521,0,0,0-.477.277,1.073,1.073,0,0,0-.133.554,1.662,1.662,0,0,0,.444,1.056,3.722,3.722,0,0,0,.505.483q.4.332.523.465a3.87,3.87,0,0,1,.65.833,2.835,2.835,0,0,1,.174.356,2.047,2.047,0,0,1,.168.724A2.123,2.123,0,0,1,10.491,16.523Zm3.967-2.647h-.967l0,3.174h-1.14l0-3.174H11.173l1.15-1.038h.027l0-3.333h1.14v0h2.1v1.146h-2.1V12.84h2.118Zm5.013,2.64a1.717,1.717,0,0,1-1.266.532H16.413l0-7.562H18.2a1.713,1.713,0,0,1,1.269.529,1.754,1.754,0,0,1,.522,1.273l0,3.949A1.744,1.744,0,0,1,19.471,16.516Z"/>
  <path id="Path_509" data-name="Path 509" class="cls-1" d="M23.193,13.657h-.687l0,5.271H23.2a.611.611,0,0,0,.459-.2.645.645,0,0,0,.186-.46l0-3.956a.641.641,0,0,0-.19-.465A.613.613,0,0,0,23.193,13.657Z" transform="translate(-4.956 -3.007)"/>
</svg>
